<svg width="580" height="420" viewBox="0 0 580 420" fill="none" xmlns="http://www.w3.org/2000/svg">
  <defs>
    <linearGradient id="paint0_linear" x1="212" y1="62" x2="440" y2="360" gradientUnits="userSpaceOnUse">
      <stop stop-color="#2F2F2F"/>
      <stop offset="1" stop-color="#1F1F1F"/>
    </linearGradient>
    <linearGradient id="crystalA" x1="60" y1="360" x2="160" y2="420" gradientUnits="userSpaceOnUse">
      <stop stop-color="#F4CE6A"/>
      <stop offset="1" stop-color="#B89443"/>
    </linearGradient>
    <linearGradient id="crystalB" x1="134" y1="340" x2="218" y2="416" gradientUnits="userSpaceOnUse">
      <stop stop-color="#5BC3D5"/>
      <stop offset="1" stop-color="#377B99"/>
    </linearGradient>
    <linearGradient id="crystalC" x1="210" y1="344" x2="308" y2="420" gradientUnits="userSpaceOnUse">
      <stop stop-color="#C784A9"/>
      <stop offset="1" stop-color="#8D437A"/>
    </linearGradient>
    <linearGradient id="crystalD" x1="284" y1="350" x2="356" y2="420" gradientUnits="userSpaceOnUse">
      <stop stop-color="#8BC98E"/>
      <stop offset="1" stop-color="#4D9C5D"/>
    </linearGradient>
  </defs>
  <g opacity="0.16">
    <path d="M506.32 224.072C517.972 261.107 541.164 292.036 566.524 301.286C554.173 305.96 536.908 309.5 518.353 309.5C499.797 309.5 482.533 305.96 470.182 301.286C470.182 329.561 501.379 356.084 548.029 370.416C521.609 385.208 485.165 392.5 458.745 392.5C432.324 392.5 395.88 385.208 369.46 370.416C416.111 356.084 447.308 329.561 447.308 301.286C434.957 305.96 417.692 309.5 399.137 309.5C380.581 309.5 363.317 305.96 350.966 301.286C376.325 292.036 399.517 261.107 411.169 224.072C422.82 187.037 422.82 146.963 411.169 109.928C399.517 72.8934 376.325 41.9642 350.966 32.7138C363.317 28.0401 380.581 24.5 399.137 24.5C417.692 24.5 434.957 28.0401 447.308 32.7138C447.308 4.43921 416.111 -22.084 369.46 -36.4156C395.88 -51.2075 432.324 -58.5 458.745 -58.5C485.165 -58.5 521.609 -51.2075 548.029 -36.4156C501.379 -22.084 470.182 4.43921 470.182 32.7138C482.533 28.0401 499.797 24.5 518.353 24.5C536.908 24.5 554.173 28.0401 566.524 32.7138C541.164 41.9642 517.972 72.8934 506.32 109.928C494.669 146.963 494.669 187.037 506.32 224.072Z" fill="#B89443"/>
  </g>
  <g opacity="0.85">
    <path d="M356.5 130C380.435 153.935 392.402 188.123 386.793 220.871C381.183 253.619 358.925 283.105 326.719 301.44C308.202 311.885 286.978 316.977 265.24 316.868C243.502 316.759 222.33 311.455 203.932 301.049C205.401 279.129 215.017 257.703 231.687 240.094C239.977 231.308 240.401 217.388 232.239 208.482C206.051 179.725 200.856 139.638 218.703 107.069C236.55 74.5001 274.342 56.0487 314.053 59.2114C338.77 61.2105 361.592 73.9995 378.333 94.1658C368.314 97.636 360.065 106.343 356.5 117.062V130Z" fill="url(#paint0_linear)"/>
    <path d="M274.861 301.647C286.319 317.427 287.616 338.854 276.706 354.947C265.796 371.039 245.892 379.668 226.038 377.043C234.741 362.032 227.214 341.847 209.78 331.374C192.345 320.902 169.826 323.585 156.016 337.295C151.443 315.489 162.707 293.101 183.338 283.327C203.968 273.552 228.424 278.328 243.095 295.34C248.507 301.619 255.456 306.37 263.274 309.01C271.093 311.65 279.448 311.989 287.339 309.988C282.121 306.833 277.759 303.084 274.861 301.647Z" fill="#1F1F1F"/>
  </g>
  <g opacity="0.92">
    <path d="M94.943 377.636L61.095 395.4C56.8942 397.613 51.7557 395.743 50.1107 391.252L41.5414 367.47C39.8963 362.979 42.5655 358.011 47.0127 356.796L90.3213 344.947C95.6046 343.39 100.59 348.125 99.2442 353.437L94.943 377.636Z" fill="url(#crystalA)"/>
    <path d="M170.156 396.045L128.58 407.002C123.717 408.312 119.225 404.693 119.409 399.672L120.615 366.546C120.799 361.525 125.497 357.999 130.319 359.363L177.949 372.857C183.484 374.425 184.147 382.386 178.879 384.782L170.156 396.045Z" fill="url(#crystalB)"/>
    <path d="M231.997 396.041L212.871 414.234C209.108 417.873 202.934 416.313 201.31 411.271L191.715 381.218C190.091 376.176 193.844 370.998 199.133 370.892L236.197 370.145C241.486 370.039 245.42 374.985 244.089 380.074L238.59 401.418C237.698 404.855 235.189 407.71 231.997 409.044V396.041Z" fill="url(#crystalC)"/>
    <path d="M305.165 407.536L278.774 392.924C274.569 390.604 273.78 384.888 277.449 381.791L311.275 353.541C314.944 350.444 320.459 352.453 321.426 357.136L329.086 394.501C330.054 399.183 325.904 403.201 321.236 402.062L305.165 407.536Z" fill="url(#crystalD)"/>
  </g>
</svg>
