<svg width="600" height="600" viewBox="0 0 600 600" fill="none" xmlns="http://www.w3.org/2000/svg">
  <g opacity="0.85" stroke="#E7D3A2" stroke-width="3.5" stroke-linecap="round" stroke-linejoin="round">
    <circle cx="300" cy="300" r="210" />
    <circle cx="300" cy="300" r="165" />
    <circle cx="300" cy="300" r="120" />
    <path d="M300 120C272 165 259 210 259 240C259 270 272 315 300 360C328 315 341 270 341 240C341 210 328 165 300 120Z" fill="#F8F3E3"/>
    <path d="M180 180C207 204 222 234 227 258C232 282 230 318 220 356C193 332 174 306 166 282C158 258 163 220 180 180Z" fill="#F8F3E3"/>
    <path d="M420 180C402 220 407 258 399 282C391 306 372 332 345 356C335 318 333 282 338 258C343 234 358 204 385 180Z" fill="#F8F3E3"/>
    <path d="M120 300C165 272 210 259 240 259C270 259 315 272 360 300C315 328 270 341 240 341C210 341 165 328 120 300Z" fill="#F8F3E3"/>
    <path d="M300 480C328 435 341 390 341 360C341 330 328 285 300 240C272 285 259 330 259 360C259 390 272 435 300 480Z" fill="#F8F3E3"/>
    <path d="M480 300C435 272 390 259 360 259C330 259 285 272 240 300C285 328 330 341 360 341C390 341 435 328 480 300Z" fill="#F8F3E3"/>
    <path d="M180 420C207 396 222 366 227 342C232 318 230 282 220 244C193 268 174 294 166 318C158 342 163 380 180 420Z" fill="#F8F3E3"/>
    <path d="M420 420C402 380 407 342 399 318C391 294 372 268 345 244C335 282 333 318 338 342C343 366 358 396 385 420Z" fill="#F8F3E3"/>
    <path d="M300 90L318 142L372 138L332 176L348 228L300 198L252 228L268 176L228 138L282 142L300 90Z" fill="#F8F3E3"/>
    <path d="M510 300L458 318L462 372L424 332L372 348L402 300L372 252L424 268L462 228L458 282L510 300Z" fill="#F8F3E3"/>
    <path d="M300 510L282 458L228 462L268 424L252 372L300 402L348 372L332 424L372 462L318 458L300 510Z" fill="#F8F3E3"/>
    <path d="M90 300L142 282L138 228L176 268L228 252L198 300L228 348L176 332L138 372L142 318L90 300Z" fill="#F8F3E3"/>
  </g>
  <g opacity="0.4" stroke="#C9AF7A" stroke-width="2.5" stroke-linecap="round" stroke-linejoin="round">
    <circle cx="300" cy="300" r="250" />
    <path d="M300 60C270 108 255 150 252 180C249 210 255 255 276 300" />
    <path d="M300 60C330 108 345 150 348 180C351 210 345 255 324 300" />
    <path d="M60 300C108 330 150 345 180 348C210 351 255 345 300 324" />
    <path d="M540 300C492 330 450 345 420 348C390 351 345 345 300 324" />
    <path d="M300 540C330 492 345 450 348 420C351 390 345 345 324 300" />
    <path d="M300 540C270 492 255 450 252 420C249 390 255 345 276 300" />
  </g>
</svg>
