<svg width="36" height="36" viewBox="0 0 64 64" fill="none" xmlns="http://www.w3.org/2000/svg">
  <g fill="#B89443">
    <path d="M32 6c-4.758 7.606-6.318 16.1-4.718 23.086c1.6 6.987 5.86 11.883 9.77 16.282C40.687 34.986 42.283 25.26 32 6Z"/>
    <path d="M32 6c-10.283 19.26-8.687 28.986-5.052 39.368c3.91-4.399 8.17-9.295 9.77-16.282C37.318 22.1 36.758 13.606 32 6Z" opacity=".35"/>
    <path d="M15 15c-1.824 10.174.465 18.55 6.16 23.8c5.694 5.25 13.84 6.921 21.44 6.568C39.55 36.247 35.74 27.86 29 23c-6.74-4.86-14-8-14-8Z" opacity=".7"/>
    <path d="M49 15s-7.26 3.14-14 8c-6.74 4.86-10.55 13.247-13.6 22.369c7.6.353 15.746-1.318 21.44-6.569C48.535 33.55 50.824 25.174 49 15Z" opacity=".4"/>
    <path d="M11 31c0 7.732 4.582 14.138 10.24 18.272c5.658 4.135 12.27 5.998 18.76 5.998S53.102 53.407 58.76 49.272C64.418 45.138 69 38.732 69 31c-7.459 1.357-15.066-.353-21.5-3.177C41.066 24.995 35.691 22 32 22s-9.066 2.995-15.5 5.823C10.066 30.647 2.459 32.357-5 31Z" transform="translate(-5 -5)" opacity=".25"/>
    <path d="M32 24c-3.167 0-6.197 1.114-9.174 2.523c-2.977 1.408-5.9 3.092-8.826 4.413C18.703 33.393 23.742 35 27 35c3.257 0 6.392-2.002 9.37-3.41C39.347 30.18 42.168 29 45 29c2.832 0 6.297 1.02 9 1.918c-2.926-1.32-5.849-3.005-8.826-4.413C38.197 25.114 35.167 24 32 24Z"/>
    <path d="M32 33c-1.513 0-2.962.502-4.265 1.278c-1.304.776-2.581 1.825-3.885 2.603C25.154 37.658 26.48 38 27.5 38c1.019 0 1.965-.943 2.878-1.464C31.29 35.822 32.153 35 33 35c.848 0 1.808.604 2.622 1.098C36.436 36.592 37.293 37 38.5 37c1.206 0 2.59-.347 3.65-.627c-1.304-.778-2.581-1.827-3.885-2.603C34.962 33.502 33.513 33 32 33Z" opacity=".55"/>
  </g>
</svg>
